<svg width="26" height="24" viewBox="0 0 26 24" fill="none" xmlns="http://www.w3.org/2000/svg">
<path d="M24.0911 8.03866L17.2435 7.04035L14.183 0.834866C13.6346 -0.271247 12.0457 -0.285308 11.4927 0.834866L8.43212 7.04035L1.58453 8.03866C0.356558 8.21677 -0.135568 9.73064 0.754947 10.5977L5.70902 15.4253L4.53729 22.2447C4.32638 23.4774 5.62466 24.4007 6.71202 23.8242L12.8378 20.6043L18.9636 23.8242C20.051 24.396 21.3493 23.4774 21.1384 22.2447L19.9666 15.4253L24.9207 10.5977C25.8112 9.73064 25.3191 8.21677 24.0911 8.03866ZM17.5529 14.6378L18.6637 21.1245L12.8378 18.064L7.01198 21.1245L8.12279 14.6378L3.40774 10.0447L9.92256 9.09791L12.8378 3.19239L15.7531 9.09791L22.2679 10.0447L17.5529 14.6378Z" fill="black"/>
</svg>
