<svg width="24" height="24" viewBox="0 0 24 24" fill="none" xmlns="http://www.w3.org/2000/svg">
<path d="M18.8571 0H5.14286C2.30254 0 0 2.30254 0 5.14286V18.8571C0 21.6975 2.30254 24 5.14286 24H18.8571C21.6975 24 24 21.6975 24 18.8571V5.14286C24 2.30254 21.6975 0 18.8571 0Z" fill="url(#paint0_radial_17_41)"/>
<path d="M18.8571 0H5.14286C2.30254 0 0 2.30254 0 5.14286V18.8571C0 21.6975 2.30254 24 5.14286 24H18.8571C21.6975 24 24 21.6975 24 18.8571V5.14286C24 2.30254 21.6975 0 18.8571 0Z" fill="url(#paint1_radial_17_41)"/>
<path d="M18.8571 0H5.14286C2.30254 0 0 2.30254 0 5.14286V18.8571C0 21.6975 2.30254 24 5.14286 24H18.8571C21.6975 24 24 21.6975 24 18.8571V5.14286C24 2.30254 21.6975 0 18.8571 0Z" fill="url(#paint2_radial_17_41)"/>
<path d="M18 7.28571C18 7.99577 17.4244 8.57143 16.7143 8.57143C16.0042 8.57143 15.4286 7.99577 15.4286 7.28571C15.4286 6.57563 16.0042 6 16.7143 6C17.4244 6 18 6.57563 18 7.28571Z" fill="white"/>
<path fill-rule="evenodd" clip-rule="evenodd" d="M12.0001 16.2858C14.367 16.2858 16.2858 14.367 16.2858 12.0001C16.2858 9.63316 14.367 7.71436 12.0001 7.71436C9.63316 7.71436 7.71436 9.63316 7.71436 12.0001C7.71436 14.367 9.63316 16.2858 12.0001 16.2858ZM12.0001 14.5715C13.4203 14.5715 14.5715 13.4203 14.5715 12.0001C14.5715 10.5799 13.4203 9.42864 12.0001 9.42864C10.5799 9.42864 9.42864 10.5799 9.42864 12.0001C9.42864 13.4203 10.5799 14.5715 12.0001 14.5715Z" fill="white"/>
<path fill-rule="evenodd" clip-rule="evenodd" d="M3.42859 11.6573C3.42859 8.77703 3.42859 7.33685 3.98913 6.23676C4.48219 5.26907 5.26894 4.48231 6.23664 3.98925C7.33673 3.42871 8.7769 3.42871 11.6572 3.42871H12.3429C15.2231 3.42871 16.6633 3.42871 17.7634 3.98925C18.7311 4.48231 19.5178 5.26907 20.0109 6.23676C20.5714 7.33685 20.5714 8.77703 20.5714 11.6573V12.343C20.5714 15.2233 20.5714 16.6634 20.0109 17.7635C19.5178 18.7312 18.7311 19.518 17.7634 20.011C16.6633 20.5716 15.2231 20.5716 12.3429 20.5716H11.6572C8.7769 20.5716 7.33673 20.5716 6.23664 20.011C5.26894 19.518 4.48219 18.7312 3.98913 17.7635C3.42859 16.6634 3.42859 15.2233 3.42859 12.343V11.6573ZM11.6572 5.143H12.3429C13.8113 5.143 14.8095 5.14433 15.5811 5.20737C16.3327 5.26877 16.717 5.38007 16.9852 5.51669C17.6302 5.8454 18.1547 6.3699 18.4834 7.015C18.6201 7.28311 18.7314 7.66745 18.7928 8.41908C18.8558 9.19068 18.8572 10.1888 18.8572 11.6573V12.343C18.8572 13.8115 18.8558 14.8096 18.7928 15.5812C18.7314 16.3328 18.6201 16.7172 18.4834 16.9853C18.1547 17.6304 17.6302 18.1549 16.9852 18.4836C16.717 18.6202 16.3327 18.7315 15.5811 18.7929C14.8095 18.8559 13.8113 18.8573 12.3429 18.8573H11.6572C10.1887 18.8573 9.19056 18.8559 8.41896 18.7929C7.66733 18.7315 7.28299 18.6202 7.01487 18.4836C6.36978 18.1549 5.84528 17.6304 5.51656 16.9853C5.37995 16.7172 5.26865 16.3328 5.20725 15.5812C5.14421 14.8096 5.14287 13.8115 5.14287 12.343V11.6573C5.14287 10.1888 5.14421 9.19068 5.20725 8.41908C5.26865 7.66745 5.37995 7.28311 5.51656 7.015C5.84528 6.3699 6.36978 5.8454 7.01487 5.51669C7.28299 5.38007 7.66733 5.26877 8.41896 5.20737C9.19056 5.14433 10.1887 5.143 11.6572 5.143Z" fill="white"/>
<defs>
<radialGradient id="paint0_radial_17_41" cx="0" cy="0" r="1" gradientUnits="userSpaceOnUse" gradientTransform="translate(8.57143 18) rotate(-55.3758) scale(21.8739)">
<stop stop-color="#B13589"/>
<stop offset="0.79309" stop-color="#C62F94"/>
<stop offset="1" stop-color="#8A3AC8"/>
</radialGradient>
<radialGradient id="paint1_radial_17_41" cx="0" cy="0" r="1" gradientUnits="userSpaceOnUse" gradientTransform="translate(7.71429 24.8571) rotate(-65.1363) scale(19.3665)">
<stop stop-color="#E0E8B7"/>
<stop offset="0.444662" stop-color="#FB8A2E"/>
<stop offset="0.71474" stop-color="#E2425C"/>
<stop offset="1" stop-color="#E2425C" stop-opacity="0"/>
</radialGradient>
<radialGradient id="paint2_radial_17_41" cx="0" cy="0" r="1" gradientUnits="userSpaceOnUse" gradientTransform="translate(-1.28571 0.857143) rotate(-8.1301) scale(33.3351 7.13002)">
<stop offset="0.156701" stop-color="#406ADC"/>
<stop offset="0.467799" stop-color="#6A45BE"/>
<stop offset="1" stop-color="#6A45BE" stop-opacity="0"/>
</radialGradient>
</defs>
</svg>
