<svg width="85" height="85" viewBox="0 0 85 85" fill="none" xmlns="http://www.w3.org/2000/svg">
<path d="M42.5 0.5C19.295 0.5 0.5 19.295 0.5 42.5C0.5 65.705 19.295 84.5 42.5 84.5C65.705 84.5 84.5 65.705 84.5 42.5C84.5 19.295 65.705 0.5 42.5 0.5ZM42.5 11C45.965 11 49.22 11.945 52.37 12.995C50.165 15.095 47.645 16.985 48.065 18.875C48.485 20.765 55.31 20.24 55.31 24.125C55.31 26.96 50.9 27.8 53.945 31.055C57.62 34.73 47.225 41.345 47.015 46.175C46.7 54.89 55.835 56.36 63.08 56.36C67.49 56.36 68.645 58.46 68.33 60.98C62.66 69.065 53 74.105 42.395 74.105C38.405 74.105 34.73 73.16 31.265 71.795C33.575 67.175 28.325 58.04 23.39 55.1C20.975 52.685 15.83 53.63 12.89 52.475C11.945 49.64 11 46.805 10.895 43.655C11.21 43.13 11.735 42.71 12.575 42.71C14.57 42.71 17.3 46.7 18.77 46.28C20.66 45.86 11 32.525 15.515 29.9C17.615 28.64 21.815 33.995 20.45 28.22C19.19 22.865 24.23 25.28 27.38 23.915C30.11 22.76 32.105 19.61 28.745 17.72C28.115 17.405 27.38 16.67 26.435 15.725C31.16 12.89 36.62 11.105 42.5 11.105V11ZM66.755 22.445C68.645 24.755 70.115 27.275 71.375 30.005V30.32C70.955 31.055 70.22 31.475 69.065 32.63C66.125 35.57 65.705 30.425 64.445 29.375C63.08 28.115 58.145 29.585 57.515 28.01C56.78 26.12 62.765 23.6 66.755 22.445Z" fill="#F55C47"/>
</svg>
