<svg width="91" height="92" viewBox="0 0 91 92" fill="none" xmlns="http://www.w3.org/2000/svg">
<path d="M17.5 4L3.5 20.8V79.6C3.5 81.8278 4.48333 83.9644 6.23367 85.5397C7.98401 87.115 10.358 88 12.8333 88H78.1667C80.642 88 83.016 87.115 84.7663 85.5397C86.5167 83.9644 87.5 81.8278 87.5 79.6V20.8L73.5 4H17.5Z" stroke="#F55C47" stroke-width="7" stroke-linecap="round" stroke-linejoin="round"/>
<path d="M3.5 20.8003H87.5" stroke="#F55C47" stroke-width="7" stroke-linecap="round" stroke-linejoin="round"/>
<path d="M64.1667 37.6001C64.1667 42.0557 62.2 46.3289 58.6994 49.4795C55.1987 52.6301 50.4507 54.4001 45.5 54.4001C40.5493 54.4001 35.8014 52.6301 32.3007 49.4795C28.8 46.3289 26.8334 42.0557 26.8334 37.6001" stroke="#F55C47" stroke-width="7" stroke-linecap="round" stroke-linejoin="round"/>
</svg>
