<svg width="24" height="24" viewBox="0 0 24 24" fill="none" xmlns="http://www.w3.org/2000/svg">
<path d="M20.4 0H3.6C1.61177 0 0 1.61177 0 3.6V20.4C0 22.3882 1.61177 24 3.6 24H20.4C22.3882 24 24 22.3882 24 20.4V3.6C24 1.61177 22.3882 0 20.4 0Z" fill="#1DA1F2"/>
<path d="M20.4844 7.12513C19.9287 7.49375 19.2762 7.68948 18.6094 7.68763C19.3223 7.26764 19.8561 6.60038 20.1094 5.81263C19.5184 6.31223 18.7737 6.59357 18 6.60951C17.4899 6.08705 16.8241 5.74413 16.1026 5.63219C15.381 5.52025 14.6426 5.64533 13.9982 5.98867C13.3538 6.33201 12.8381 6.87509 12.5285 7.5364C12.2189 8.19771 12.1322 8.94158 12.2812 9.65638C10.9684 9.58707 9.68488 9.24243 8.51392 8.64484C7.34296 8.04724 6.31077 7.21005 5.48438 6.18763C5.07999 6.91937 4.96159 7.77515 5.15211 8.5892C5.34263 9.40324 5.82851 10.1176 6.51562 10.5939C5.99706 10.6012 5.48377 10.4889 5.01562 10.2658C5.02823 11.0208 5.29372 11.7499 5.76961 12.3362C6.2455 12.9226 6.9043 13.3324 7.64062 13.5001C7.15048 13.6281 6.63781 13.6442 6.14062 13.547C6.3551 14.2159 6.77296 14.8013 7.33593 15.2214C7.89891 15.6415 8.57895 15.8755 9.28125 15.8908C7.798 16.7905 6.09417 17.2611 4.35938 17.2501C5.81228 18.1987 7.49992 18.7254 9.23442 18.7716C10.9689 18.8179 12.6822 18.3819 14.1836 17.5121C15.685 16.6424 16.9156 15.373 17.7383 13.8454C18.5611 12.3177 18.9438 10.5917 18.8438 8.85951C19.4623 8.35366 20.0136 7.77081 20.4844 7.12513Z" fill="white"/>
</svg>
