<svg width="85" height="84" viewBox="0 0 85 84" fill="none" xmlns="http://www.w3.org/2000/svg">
<path d="M71.9 0H55.1C53.9862 0.000237877 52.9181 0.442893 52.1306 1.2306L42.5 10.8612L32.8694 1.2306C32.0819 0.442893 31.0138 0.000237877 29.9 0H13.1C9.75827 0 6.55341 1.3275 4.19045 3.69045C1.8275 6.05341 0.5 9.25827 0.5 12.6V71.4C0.5 74.7417 1.8275 77.9466 4.19045 80.3095C6.55341 82.6725 9.75827 84 13.1 84H71.9C75.2417 84 78.4466 82.6725 80.8095 80.3095C83.1725 77.9466 84.5 74.7417 84.5 71.4V12.6C84.5 9.25827 83.1725 6.05341 80.8095 3.69045C78.4466 1.3275 75.2417 0 71.9 0ZM76.1 71.4C76.1 72.5139 75.6575 73.5822 74.8699 74.3699C74.0822 75.1575 73.0139 75.6 71.9 75.6H13.1C11.9861 75.6 10.9178 75.1575 10.1302 74.3699C9.3425 73.5822 8.9 72.5139 8.9 71.4V12.6C8.9 11.4861 9.3425 10.4178 10.1302 9.63015C10.9178 8.8425 11.9861 8.4 13.1 8.4H28.1612L39.5306 19.7694C40.3182 20.5568 41.3863 20.9991 42.5 20.9991C43.6137 20.9991 44.6818 20.5568 45.4694 19.7694L56.8388 8.4H71.9C73.0139 8.4 74.0822 8.8425 74.8699 9.63015C75.6575 10.4178 76.1 11.4861 76.1 12.6V71.4ZM62.2694 30.6306C63.0568 31.4182 63.4991 32.4863 63.4991 33.6C63.4991 34.7137 63.0568 35.7818 62.2694 36.5694L41.2694 57.5694C40.4818 58.3568 39.4137 58.7991 38.3 58.7991C37.1863 58.7991 36.1182 58.3568 35.3306 57.5694L26.9306 49.1694C26.1655 48.3773 25.7422 47.3163 25.7518 46.2151C25.7613 45.1139 26.203 44.0605 26.9818 43.2818C27.7605 42.503 28.8139 42.0613 29.9151 42.0518C31.0163 42.0422 32.0773 42.4655 32.8694 43.2306L38.3 48.6612L56.3306 30.6306C57.1182 29.8432 58.1863 29.4009 59.3 29.4009C60.4137 29.4009 61.4818 29.8432 62.2694 30.6306Z" fill="#F55C47"/>
</svg>
