<svg width="34" height="34" viewBox="0 0 34 34" fill="none" xmlns="http://www.w3.org/2000/svg">
<path d="M10.625 31.875C11.7986 31.875 12.75 30.9236 12.75 29.75C12.75 28.5764 11.7986 27.625 10.625 27.625C9.45139 27.625 8.5 28.5764 8.5 29.75C8.5 30.9236 9.45139 31.875 10.625 31.875Z" fill="#2D2D2D"/>
<path d="M25.5 31.875C26.6736 31.875 27.625 30.9236 27.625 29.75C27.625 28.5764 26.6736 27.625 25.5 27.625C24.3264 27.625 23.375 28.5764 23.375 29.75C23.375 30.9236 24.3264 31.875 25.5 31.875Z" fill="#2D2D2D"/>
<path d="M29.75 7.43772H6.18375L5.3125 2.97522C5.26283 2.73161 5.1293 2.51314 4.93516 2.35783C4.74102 2.20252 4.49857 2.1202 4.25 2.12522H0V4.25022H3.37875L7.4375 24.6502C7.48717 24.8938 7.6207 25.1123 7.81484 25.2676C8.00898 25.4229 8.25143 25.5052 8.5 25.5002H27.625V23.3752H9.37125L8.5 19.1252H27.625C27.8706 19.1312 28.1107 19.0519 28.3044 18.9008C28.4982 18.7497 28.6335 18.5361 28.6875 18.2965L30.8125 8.73397C30.8481 8.57632 30.8473 8.41262 30.8101 8.25534C30.7729 8.09806 30.7003 7.95134 30.5978 7.82635C30.4954 7.70135 30.3658 7.60138 30.2188 7.53403C30.0719 7.46669 29.9116 7.43375 29.75 7.43772ZM26.775 17.0002H8.09625L6.60875 9.56272H28.4219L26.775 17.0002Z" fill="#2D2D2D"/>
</svg>
